<svg id="Capa_1" enable-background="new 0 0 512.177 512.177" viewBox="0 0 512.177 512.177"  xmlns="http://www.w3.org/2000/svg"><g><path d="m90.843 212.284v78.837c0 14.695 11.956 26.65 26.651 26.65s26.65-11.955 26.65-26.65v-78.837c0-14.695-11.955-26.651-26.65-26.651s-26.651 11.956-26.651 26.651zm38.302 0v78.837c0 6.424-5.227 11.65-11.65 11.65-6.425 0-11.651-5.227-11.651-11.65v-78.837c0-6.425 5.227-11.651 11.651-11.651 6.423 0 11.65 5.226 11.65 11.651z"/><path d="m194.359 212.284v78.837c0 14.695 11.955 26.65 26.65 26.65s26.651-11.955 26.651-26.65v-78.837c0-14.695-11.956-26.651-26.651-26.651s-26.65 11.956-26.65 26.651zm38.302 0v78.837c0 6.424-5.227 11.65-11.651 11.65s-11.65-5.227-11.65-11.65v-78.837c0-6.425 5.227-11.651 11.65-11.651 6.425 0 11.651 5.226 11.651 11.651z"/><path d="m477.551 231.063h-65.353v-17.524c0-4.143-3.357-7.5-7.5-7.5s-7.5 3.357-7.5 7.5v17.524h-46.021v-18.779c0-14.695-11.956-26.651-26.651-26.651s-26.651 11.956-26.651 26.651v21.212c-12.813 5.083-21.901 17.593-21.901 32.194v77.317c0 6.348 5.164 11.512 11.512 11.512h42.741v36.197c-6.652 1.589-13.491 2.408-20.401 2.408h-177.63c-48.178 0-87.373-39.195-87.373-87.372v-139.725h352.376v17.524c0 4.143 3.357 7.5 7.5 7.5s7.5-3.357 7.5-7.5v-17.524h10.554c10.625 0 19.269-8.645 19.269-19.27v-22.229c0-10.625-8.644-19.27-19.269-19.27h-36.867l-98.355-98.354c-9.151-9.149-24.04-9.149-33.199.008l-.351.351c-9.149 9.15-9.15 24.04 0 33.192l64.804 64.804h-195.551l64.805-64.805c9.15-9.151 9.149-24.041 0-33.191l-.358-.358c-9.152-9.15-24.039-9.15-33.191 0l-25.25 25.25c-2.929 2.93-2.929 7.678 0 10.607 2.93 2.928 7.678 2.928 10.607 0l25.25-25.25c3.301-3.303 8.676-3.303 11.977 0l.358.358c3.303 3.302 3.303 8.676 0 11.978l-100.519 100.517c-3.301 3.303-8.676 3.303-11.977 0l-.358-.358c-3.303-3.302-3.303-8.675 0-11.977l54.064-54.064c2.929-2.93 2.929-7.678 0-10.607-2.93-2.928-7.678-2.928-10.607 0l-51.9 51.9h-36.866c-10.625 0-19.269 8.644-19.269 19.269v22.229c0 10.625 8.644 19.27 19.269 19.27h10.554v139.725c0 56.448 45.925 102.372 102.373 102.372h177.63c6.885 0 13.713-.699 20.401-2.052v31.941c0 4.143 3.357 7.5 7.5 7.5s7.5-3.357 7.5-7.5v-172.323c0-7.283-2.265-14.044-6.121-19.627h138.445c10.822 0 19.626 8.805 19.626 19.627v218.71l-5.571-7.109c-1.891-2.41-4.731-3.792-7.794-3.792-.001 0-.002 0-.002 0-3.063.001-5.904 1.384-7.793 3.794l-13.071 16.678-13.072-16.678c-1.891-2.411-4.731-3.794-7.796-3.794-3.063 0-5.904 1.383-7.794 3.794l-13.074 16.679-13.074-16.679c-1.891-2.411-4.731-3.794-7.795-3.794s-5.905 1.383-7.795 3.794l-13.075 16.679-13.076-16.679c-1.89-2.411-4.73-3.795-7.795-3.795s-5.905 1.384-7.794 3.794l-5.578 7.114v-16.406c0-4.143-3.357-7.5-7.5-7.5s-7.5 3.357-7.5 7.5v31.166c0 4.222 2.682 7.984 6.673 9.362 3.988 1.378 8.422.069 11.025-3.252l10.674-13.614 13.078 16.682c1.891 2.41 4.731 3.792 7.793 3.792 3.063 0 5.903-1.382 7.795-3.794l13.075-16.679 13.074 16.678c1.89 2.411 4.73 3.795 7.795 3.795s5.905-1.384 7.794-3.794l13.074-16.679 13.075 16.681c1.891 2.41 4.731 3.792 7.793 3.792 3.063 0 5.903-1.382 7.796-3.794l13.07-16.678 10.667 13.61c2.604 3.323 7.038 4.63 11.025 3.252 3.991-1.378 6.673-5.141 6.673-9.362v-233.474c0-19.094-15.533-34.627-34.626-34.627zm-212.955-213.201.35-.351c1.651-1.651 3.821-2.477 5.99-2.477s4.338.825 5.988 2.477l100.517 100.519h.001c3.285 3.285 3.337 8.64-.008 11.984l-.351.351c-3.301 3.303-8.677 3.303-11.978 0l-100.516-100.517c-3.303-3.302-3.303-8.676.007-11.986zm-249.596 128.896v-22.229c0-2.354 1.915-4.27 4.269-4.27h28.164c-1.159 7.193 1.005 14.822 6.538 20.355l.358.358c9.151 9.149 24.039 9.151 33.191 0l20.714-20.714h225.552l20.714 20.714c9.151 9.149 24.04 9.15 33.198-.008l.35-.351c5.487-5.486 7.747-13.023 6.572-20.355h28.132c2.354 0 4.269 1.915 4.269 4.27v22.229c0 2.354-1.915 4.27-4.269 4.27h-403.483c-2.354 0-4.269-1.915-4.269-4.269zm309.526 53.875c6.425 0 11.651 5.227 11.651 11.651v18.779h-23.303v-18.779c.001-6.425 5.228-11.651 11.652-11.651zm5.701 65.057v73.829h-39.253v-73.829c0-10.822 8.805-19.627 19.627-19.627s19.626 8.805 19.626 19.627z"/><path d="m387.977 460.548c4.143 0 7.5-3.357 7.5-7.5v-1.214c7.003-2.631 12.321-8.812 13.624-16.56 1.637-9.737-3.631-18.53-13.108-21.881-.917-.324-1.812-.632-2.679-.931-3.325-1.146-7.463-2.571-8.377-3.633-.775-.9-1.074-2.562-.694-3.863.356-1.223 1.087-1.594 1.755-1.795 6.259-1.884 11.255-.708 11.488-.652 3.965 1.078 8.063-1.24 9.18-5.202 1.125-3.986-1.194-8.13-5.182-9.254-.451-.128-2.704-.717-6.127-.906-.617-3.521-3.682-6.198-7.38-6.198-4.143 0-7.5 3.357-7.5 7.5v.757c-5.206 1.961-9.049 6.11-10.635 11.551-1.816 6.229-.389 13.068 3.729 17.851 3.562 4.134 8.796 5.937 14.856 8.025.831.286 1.688.581 2.566.892 2.629.93 3.745 2.696 3.315 5.251-.337 2-2.059 5.394-6.383 5.422-4.63.033-5.742-.139-9.121-2.351-3.466-2.268-8.115-1.296-10.383 2.17s-1.296 8.114 2.17 10.383c3.717 2.432 6.683 3.671 9.885 4.275v.362c.001 4.143 3.358 7.501 7.501 7.501z"/><path d="m458.092 266.856h-73.78c-4.143 0-7.5 3.357-7.5 7.5s3.357 7.5 7.5 7.5h73.78c4.143 0 7.5-3.357 7.5-7.5s-3.358-7.5-7.5-7.5z"/><path d="m358.055 317.189c0 4.143 3.357 7.5 7.5 7.5h15.788c4.143 0 7.5-3.357 7.5-7.5s-3.357-7.5-7.5-7.5h-15.788c-4.143 0-7.5 3.358-7.5 7.5z"/><path d="m476.849 309.689h-73.662c-4.143 0-7.5 3.357-7.5 7.5s3.357 7.5 7.5 7.5h73.662c4.143 0 7.5-3.357 7.5-7.5s-3.358-7.5-7.5-7.5z"/><path d="m365.555 359.308h15.788c4.143 0 7.5-3.357 7.5-7.5s-3.357-7.5-7.5-7.5h-15.788c-4.143 0-7.5 3.357-7.5 7.5s3.357 7.5 7.5 7.5z"/><path d="m476.849 344.308h-73.662c-4.143 0-7.5 3.357-7.5 7.5s3.357 7.5 7.5 7.5h73.662c4.143 0 7.5-3.357 7.5-7.5s-3.358-7.5-7.5-7.5z"/><path d="m476.849 392.94h-37.332c-4.143 0-7.5 3.357-7.5 7.5s3.357 7.5 7.5 7.5h37.332c4.143 0 7.5-3.357 7.5-7.5s-3.358-7.5-7.5-7.5z"/></g></svg>