<svg  viewBox="0 0 60 50"  xmlns="http://www.w3.org/2000/svg"><g id="Page-1" fill="none" fill-rule="evenodd"><g id="011---Online-Shopping" fill="#ffffff" fill-rule="nonzero"><path id="Shape" d="m55 0h-50c-2.76005315.00330612-4.99669388 2.23994685-5 5v40c.00330612 2.7600532 2.23994685 4.9966939 5 5h50c2.7600532-.0033061 4.9966939-2.2399468 5-5v-40c-.0033061-2.76005315-2.2399468-4.99669388-5-5zm-50 2h50c1.6568542 0 3 1.34314575 3 3v5h-56v-5c0-1.65685425 1.34314575-3 3-3zm50 46h-50c-1.65685425 0-3-1.3431458-3-3v-33h56v33c0 1.6568542-1.3431458 3-3 3z"/><circle id="Oval" cx="5" cy="7" r="1"/><circle id="Oval" cx="9" cy="7" r="1"/><circle id="Oval" cx="13" cy="7" r="1"/><path id="Shape" d="m38 8h17c.5522847 0 1-.44771525 1-1s-.4477153-1-1-1h-17c-.5522847 0-1 .44771525-1 1s.4477153 1 1 1z"/><path id="Shape" d="m32 8h2c.5522847 0 1-.44771525 1-1s-.4477153-1-1-1h-2c-.5522847 0-1 .44771525-1 1s.4477153 1 1 1z"/><path id="Shape" d="m34 14h-26c-1.65685425 0-3 1.3431458-3 3v26c0 1.6568542 1.34314575 3 3 3h26c1.6568542 0 3-1.3431458 3-3v-26c0-1.6568542-1.3431458-3-3-3zm1 29c0 .5522847-.4477153 1-1 1h-26c-.55228475 0-1-.4477153-1-1v-26c0-.5522847.44771525-1 1-1h26c.5522847 0 1 .4477153 1 1z"/><path id="Shape" d="m40 19h8c.5522847 0 1-.4477153 1-1s-.4477153-1-1-1h-8c-.5522847 0-1 .4477153-1 1s.4477153 1 1 1z"/><path id="Shape" d="m55 21h-15c-.5522847 0-1 .4477153-1 1s.4477153 1 1 1h15c.5522847 0 1-.4477153 1-1s-.4477153-1-1-1z"/><path id="Shape" d="m55 25h-15c-.5522847 0-1 .4477153-1 1s.4477153 1 1 1h15c.5522847 0 1-.4477153 1-1s-.4477153-1-1-1z"/><path id="Shape" d="m55 29h-15c-.5522847 0-1 .4477153-1 1s.4477153 1 1 1h15c.5522847 0 1-.4477153 1-1s-.4477153-1-1-1z"/><path id="Shape" d="m55 33h-15c-.5522847 0-1 .4477153-1 1s.4477153 1 1 1h15c.5522847 0 1-.4477153 1-1s-.4477153-1-1-1z"/><path id="Shape" d="m53 40h-11c-1.6568542 0-3 1.3431458-3 3s1.3431458 3 3 3h11c1.6568542 0 3-1.3431458 3-3s-1.3431458-3-3-3zm0 4h-11c-.5522847 0-1-.4477153-1-1s.4477153-1 1-1h11c.5522847 0 1 .4477153 1 1s-.4477153 1-1 1z"/><path id="Shape" d="m28.613 23h-14.386l-1.294-3.359c-.1484968-.386066-.5193598-.6408604-.933-.641h-2c-.55228475 0-1 .4477153-1 1s.44771525 1 1 1h1.313l1.287 3.338c0 .014.01.028.016.042l3.205 8.338c.2997692.7699373 1.0397726 1.2783427 1.866 1.282h8.592c.8616854.0012125 1.6272771-.5496106 1.9-1.367l2.333-7c.2036074-.6102375.1012478-1.2811622-.2750631-1.8029245-.3763109-.5217622-.9806287-.8306594-1.6239369-.8300755zm-2.334 9h-8.592l-2.687-7h13.612z"/><path id="Shape" d="m20 30c.5522847 0 1-.4477153 1-1v-2c0-.5522847-.4477153-1-1-1s-1 .4477153-1 1v2c0 .5522847.4477153 1 1 1z"/><path id="Shape" d="m24 30c.5522847 0 1-.4477153 1-1v-2c0-.5522847-.4477153-1-1-1s-1 .4477153-1 1v2c0 .5522847.4477153 1 1 1z"/><path id="Shape" d="m17 35c-1.6568542 0-3 1.3431458-3 3s1.3431458 3 3 3 3-1.3431458 3-3-1.3431458-3-3-3zm0 4c-.5522847 0-1-.4477153-1-1s.4477153-1 1-1 1 .4477153 1 1-.4477153 1-1 1z"/><path id="Shape" d="m27 35c-1.6568542 0-3 1.3431458-3 3s1.3431458 3 3 3 3-1.3431458 3-3-1.3431458-3-3-3zm0 4c-.5522847 0-1-.4477153-1-1s.4477153-1 1-1 1 .4477153 1 1-.4477153 1-1 1z"/></g></g></svg>