<svg id="Capa_1" enable-background="new 0 0 512 512"  viewBox="0 0 512 512"  xmlns="http://www.w3.org/2000/svg"><g><g><g><g><g><g><g><path d="m94.664 289.394c-5.522 0-10-4.477-10-10v-14.56c0-5.523 4.478-10 10-10s10 4.477 10 10v14.56c0 5.523-4.477 10-10 10z"/></g></g><g><g><path d="m179.771 289.394c-5.523 0-10-4.477-10-10v-14.56c0-5.523 4.477-10 10-10 5.522 0 10 4.477 10 10v14.56c0 5.523-4.477 10-10 10z"/></g></g></g><g><path d="m137.238 338.272c-8.637 0-16.69-4.648-21.019-12.129-2.766-4.781-1.132-10.898 3.649-13.664 4.782-2.767 10.898-1.131 13.663 3.649.776 1.342 2.162 2.144 3.706 2.144 1.545 0 2.931-.801 3.707-2.144 2.766-4.779 8.883-6.415 13.663-3.649 4.781 2.766 6.415 8.883 3.649 13.664-4.326 7.481-12.38 12.129-21.018 12.129z"/></g></g></g><g><g><path d="m233.433 390.235h-29.363c-.134-.764-.355-1.516-.667-2.24-1.063-2.46-3.069-4.392-5.569-5.36l-27.858-10.789c-.066-.026-.133-.046-.199-.07 7.991-3.3 17.889-8.374 27.161-15.152 22.213-16.237 34.326-37.043 35.16-60.308 5.73-.98 10.977-3.744 15.105-8.022 5.24-5.429 7.977-12.578 7.709-20.129-.364-10.247-6.292-18.967-14.888-23.41 5.502-12.716 12.495-34.922 12.501-65.668.003-14.915-3.863-30.871-11.491-47.423-2.941-6.382-5.876-11.555-7.82-14.77-4.149-6.864-5.045-7.568-6.843-8.628-3.58-2.11-8.087-1.788-11.329.807l-2.98 2.385c-17.804 14.248-22.096 17.682-64.703 6.04-29.074-11.712-48.176-.805-63.544 7.97-9.291 5.305-17.32 9.897-26.619 9.565-8.564-.301-15.793 3.011-20.944 9.558-9.131 11.603-11.207 33.314-6.348 66.371 1.9 12.926 4.477 24.856 6.395 32.916-9.602 4.092-16.38 13.31-16.77 24.287-.269 7.551 2.469 14.7 7.709 20.129 3.983 4.128 9.007 6.846 14.502 7.913 1.46 42.972 40.706 66.537 62.753 75.629-.009.004-.019.006-.028.01l-27.859 10.789c-2.5.968-4.506 2.899-5.569 5.36-.313.724-.533 1.476-.667 2.24h-29.37c-22.607 0-41 18.392-41 41v70.765c0 5.523 4.477 10 10 10h254.435c5.523 0 10-4.477 10-10v-70.761c0-22.61-18.393-41.004-41.002-41.004zm-52.302 7.38-11.65 28.676-17.877-21.814 16.27-11.995zm-129.166-240.655c.991-1.259 2.112-2.027 4.538-1.938 14.999.521 26.799-6.232 37.225-12.185 14.662-8.371 26.244-14.982 46.606-6.603.378.155.766.288 1.16.396 43.679 11.977 56.859 10.12 77.146-4.972 5.695 10.337 13.885 28.498 13.882 47.426-.004 23.436-4.578 41.139-8.765 52.437l-29.293-43.33c-1.895-2.803-5.026-4.4-8.285-4.4-.97 0-1.951.142-2.915.436-4.198 1.28-7.072 5.148-7.084 9.538-.019 6.613-13.033 9.772-24.172 10.468-9.804.609-62.271-1.114-81.66-1.831-.123-.004-.246-.007-.369-.007-6.859 0-12.534 4.772-18.585 16.042-.604-3.346-1.185-6.831-1.707-10.383-5.54-37.685.343-48.636 2.278-51.094zm9.729 136.774c0-.716-.077-1.43-.229-2.129l-1.529-7.018c-1.001-4.594-5.068-7.871-9.771-7.871h-3.103c-2.068 0-3.999-.82-5.437-2.31-1.437-1.488-2.187-3.452-2.112-5.531.142-4.009 3.718-7.271 7.97-7.271.204 0 .406-.008.607-.02.094.005.186.015.281.017 4.446.089 8.364-2.728 9.719-6.929 4.412-13.678 10.688-27.76 14.228-32.188 13.248.476 69.433 2.426 80.938 1.708 17.316-1.082 27.727-5.613 33.945-11.038l29.78 44.05c1.857 2.749 4.958 4.396 8.275 4.399h.009c.279 0 .556-.016.832-.039.282.024.567.039.855.039 4.252 0 7.828 3.262 7.97 7.272.074 2.078-.676 4.042-2.111 5.53-1.438 1.489-3.369 2.31-5.438 2.31h-3.701c-4.702 0-8.77 3.276-9.771 7.871l-1.529 7.018c-.152.7-.23 1.414-.23 2.129 0 42.067-51.858 61.428-59.194 62.693-2.818.403-5.331 1.988-6.908 4.358s-2.069 5.3-1.354 8.055l3.465 13.334-10.934 8.061-11.436-8.431 3.368-12.962c.716-2.755.25-5.681-1.327-8.051s-4.064-3.951-6.882-4.355c-7.383-1.284-59.246-20.722-59.246-62.701zm44.868 98.747 16.27 11.995-17.877 21.815-11.649-28.676zm147.874 99.519h-234.436v-60.764c0-11.58 9.421-21 21-21h35.844l15.914 39.173c1.328 3.269 4.279 5.595 7.768 6.124.5.076 1.001.113 1.498.113 2.97 0 5.818-1.325 7.733-3.662l27.46-33.509 27.46 33.509c1.915 2.337 4.764 3.662 7.733 3.662.497 0 .998-.037 1.498-.113 3.488-.528 6.439-2.855 7.768-6.124l15.914-39.173h35.841c11.581 0 21.003 9.422 21.003 21.003v60.761z"/></g></g></g><g><g><g><g><path d="m437.248 126.191c-34.792 0-63.097-28.305-63.097-63.096s28.305-63.095 63.097-63.095c34.791 0 63.096 28.305 63.096 63.096s-28.305 63.095-63.096 63.095zm0-106.191c-23.764 0-43.097 19.333-43.097 43.096s19.333 43.096 43.097 43.096c23.763 0 43.096-19.332 43.096-43.096s-19.333-43.096-43.096-43.096z"/></g><g><g><path d="m502 220.197h-129.505c-5.522 0-10-4.477-10-10v-45.935c0-15.275 12.427-27.702 27.701-27.702h94.103c15.274 0 27.701 12.427 27.701 27.702v45.935c0 5.523-4.478 10-10 10zm-119.505-20h109.505v-35.935c0-4.247-3.455-7.702-7.701-7.702h-94.103c-4.246 0-7.701 3.455-7.701 7.702z"/></g></g></g><g><g><path d="m437.248 417.994c-34.792 0-63.097-28.305-63.097-63.096s28.305-63.096 63.097-63.096c34.791 0 63.096 28.305 63.096 63.096 0 34.792-28.305 63.096-63.096 63.096zm0-106.191c-23.764 0-43.097 19.333-43.097 43.096s19.333 43.096 43.097 43.096c23.763 0 43.096-19.333 43.096-43.096 0-23.764-19.333-43.096-43.096-43.096z"/></g><g><g><path d="m502 512h-129.505c-5.522 0-10-4.477-10-10v-45.935c0-15.275 12.427-27.701 27.701-27.701h94.103c15.274 0 27.701 12.427 27.701 27.701v45.935c0 5.523-4.478 10-10 10zm-119.505-20h109.505v-35.935c0-4.247-3.455-7.701-7.701-7.701h-94.103c-4.246 0-7.701 3.455-7.701 7.701z"/></g></g></g></g><g><path d="m502 266h-59.667c-5.523 0-10-4.477-10-10s4.477-10 10-10h59.667c5.522 0 10 4.477 10 10s-4.478 10-10 10z"/></g><g><path d="m404.17 266c-4.18 0-8.006-2.707-9.415-6.636-1.391-3.879-.193-8.32 2.945-10.986 3.281-2.787 8.09-3.115 11.746-.864 3.499 2.155 5.327 6.41 4.524 10.436-.921 4.614-5.089 8.05-9.8 8.05z"/></g><path d="m361.667 246h-50.506v-125.901h34.958c5.522 0 10-4.477 10-10s-4.478-10-10-10h-44.958c-5.522 0-10 4.477-10 10v291.803c0 5.523 4.478 10 10 10h44.958c5.522 0 10-4.477 10-10s-4.478-10-10-10h-34.958v-125.902h50.506c5.523 0 10-4.477 10-10s-4.477-10-10-10z"/></g></g></svg>