<svg id="Capa_1" enable-background="new 0 0 512 512" viewBox="0 0 512 512" xmlns="http://www.w3.org/2000/svg"><g><path d="m128.357 156.293h147.45c4.143 0 7.5-3.357 7.5-7.5s-3.357-7.5-7.5-7.5h-147.45c-4.143 0-7.5 3.357-7.5 7.5s3.357 7.5 7.5 7.5z"/><path d="m128.357 218.646h147.45c4.143 0 7.5-3.357 7.5-7.5s-3.357-7.5-7.5-7.5h-147.45c-4.143 0-7.5 3.357-7.5 7.5s3.357 7.5 7.5 7.5z"/><path d="m271.063 381.839c0 15.856 21.456 27.813 49.909 27.813s49.909-11.957 49.909-27.813-21.456-27.813-49.909-27.813-49.909 11.956-49.909 27.813zm84.818 0c0 4.518-13.254 12.813-34.909 12.813s-34.909-8.296-34.909-12.813 13.254-12.813 34.909-12.813 34.909 8.295 34.909 12.813z"/><path d="m465.586 361.525c0-4.143-3.357-7.5-7.5-7.5h-55.934c-4.143 0-7.5 3.357-7.5 7.5s3.357 7.5 7.5 7.5h55.934c4.143 0 7.5-3.357 7.5-7.5z"/><path d="m432.153 395.339h25.934c4.143 0 7.5-3.357 7.5-7.5s-3.357-7.5-7.5-7.5h-25.934c-4.143 0-7.5 3.357-7.5 7.5s3.357 7.5 7.5 7.5z"/><path d="m484.719 247.883h-89.986v-180.074c0-18.091-14.719-32.809-32.81-32.809h-64.1v-10.188c.001-13.681-11.13-24.812-24.812-24.812h-22.353c-4.143 0-7.5 3.357-7.5 7.5s3.357 7.5 7.5 7.5h22.353c5.41 0 9.812 4.401 9.812 9.812v35.185c0 5.41-4.402 9.812-9.812 9.812h-19.19c-11.615 0-21.065 9.45-21.065 21.065 0 3.345-2.721 6.065-6.065 6.065h-49.216c-3.345 0-6.065-2.721-6.065-6.065 0-11.615-9.45-21.065-21.065-21.065h-19.19c-5.411 0-9.812-4.401-9.812-9.812v-35.185c0-5.41 4.401-9.812 9.812-9.812h89.519c4.143 0 7.5-3.357 7.5-7.5s-3.357-7.5-7.5-7.5h-89.519c-13.682 0-24.812 11.131-24.812 24.812v10.188h-64.103c-18.091 0-32.809 14.718-32.809 32.809v411.383c0 18.09 14.718 32.808 32.809 32.808h319.684c18.091 0 32.81-14.718 32.81-32.809v-43.301h42.426c4.143 0 7.5-3.357 7.5-7.5s-3.357-7.5-7.5-7.5h-180.24c-1.571 0-2.85-1.278-2.85-2.85v-85.749h233.5v85.749c0 1.571-1.278 2.85-2.85 2.85h-17.573c-4.143 0-7.5 3.357-7.5 7.5s3.357 7.5 7.5 7.5h17.573c9.843 0 17.85-8.007 17.85-17.85v-152.308c-.001-9.842-8.008-17.849-17.851-17.849zm2.85 17.849v23.926h-233.5v-23.926c0-1.571 1.278-2.85 2.85-2.85h227.801c1.571.001 2.849 1.279 2.849 2.85zm-125.646-215.732c9.82 0 17.81 7.989 17.81 17.809v180.074h-15v-167.56c0-8.449-6.874-15.323-15.323-15.323h-52.093c.812-3.951.392-6.138.507-15zm-105.005 385.89h92.814v30.787c0 .179-.145.323-.323.323h-294.655c-.179 0-.323-.145-.323-.323v-58.725c0-4.143-3.357-7.5-7.5-7.5s-7.5 3.357-7.5 7.5v58.725c0 8.449 6.874 15.323 15.323 15.323h294.656c8.449 0 15.323-6.874 15.323-15.323v-30.787h15v43.302c0 9.819-7.989 17.809-17.81 17.809h-319.683c-9.819 0-17.809-7.989-17.809-17.809v-411.383c0-9.82 7.989-17.809 17.809-17.809h64.101c.114 8.711-.306 11.045.507 15h-52.094c-8.449 0-15.323 6.874-15.323 15.323v297.642c0 4.143 3.357 7.5 7.5 7.5s7.5-3.357 7.5-7.5v-297.642c0-.178.145-.323.323-.323h61.742c4.11 3.019 9.177 4.808 14.656 4.808h19.19c3.345 0 6.065 2.721 6.065 6.065 0 11.615 9.45 21.065 21.065 21.065h49.216c11.615 0 21.065-9.45 21.065-21.065 0-3.345 2.721-6.065 6.065-6.065h19.19c5.479 0 10.546-1.789 14.656-4.808h61.742c.179 0 .323.145.323.323v167.56h-92.814c-9.843 0-17.85 8.007-17.85 17.85v.267h-110.708c-4.143 0-7.5 3.357-7.5 7.5s3.357 7.5 7.5 7.5h110.712v47.354h-110.712c-4.143 0-7.5 3.357-7.5 7.5s3.357 7.5 7.5 7.5h110.712v47.354h-110.712c-4.143 0-7.5 3.357-7.5 7.5s3.357 7.5 7.5 7.5h110.712v12.333c0 9.842 8.007 17.849 17.849 17.849zm-2.849-118.599v-12.633h233.5v12.633z"/><path d="m220.671 37.205h-37.179c-4.143 0-7.5 3.357-7.5 7.5s3.357 7.5 7.5 7.5h37.179c4.143 0 7.5-3.357 7.5-7.5s-3.357-7.5-7.5-7.5z"/></g></svg>