<svg id="Icons"  viewBox="0 0 74 74"  xmlns="http://www.w3.org/2000/svg"><path d="m66 8.833h-58a1 1 0 0 1 -1-1v-5a1 1 0 0 1 1-1h58a1 1 0 0 1 1 1v5a1 1 0 0 1 -1 1zm-57-2h56v-3h-56z"/><path d="m62.62 37.97a1 1 0 0 1 -1-1v-2.91a1 1 0 0 1 2 0v2.91a1 1 0 0 1 -1 1z"/><path d="m61.62 66.83h-50a2 2 0 0 1 -2-2v-57a1 1 0 0 1 1-1h52a1 1 0 0 1 1 1v19.23a1 1 0 0 1 -2 0v-18.23h-50v56h50v-10.89a1 1 0 0 1 2 0v10.89a1.978 1.978 0 0 1 -2 2z"/><path d="m62.62 47.94a1 1 0 0 1 -1-1v-2.97a1 1 0 0 1 2 0v2.97a1 1 0 0 1 -1 1z"/><path d="m58.792 72.167h-5.334a1 1 0 0 1 -.936-.649l-2-5.333a1 1 0 0 1 .936-1.352h7.334a1 1 0 0 1 1 1v5.334a1 1 0 0 1 -1 1zm-4.641-2h3.641v-3.334h-4.892z"/><path d="m19.792 72.167h-5.334a1 1 0 0 1 -1-1v-5.334a1 1 0 0 1 1-1h7.334a1 1 0 0 1 .936 1.352l-2 5.333a1 1 0 0 1 -.936.649zm-4.334-2h3.642l1.25-3.334h-4.892z"/><path d="m36.625 66.833a1 1 0 0 1 -1-1v-58a1 1 0 1 1 2 0v58a1 1 0 0 1 -1 1z"/><path d="m42.375 40.008a1 1 0 0 1 -1-1v-7a1 1 0 1 1 2 0v7a1 1 0 0 1 -1 1z"/><path d="m31.625 40.008a1 1 0 0 1 -1-1v-7a1 1 0 0 1 2 0v7a1 1 0 0 1 -1 1z"/></svg>